<?xml version="1.0" encoding="utf-8"?>
<!-- Generator: Adobe Illustrator 21.0.0, SVG Export Plug-In . SVG Version: 6.00 Build 0)  -->
<svg version="1.1" id="Layer_1" xmlns="http://www.w3.org/2000/svg" xmlns:xlink="http://www.w3.org/1999/xlink" x="0px" y="0px"
	 viewBox="0 0 117 28" style="enable-background:new 0 0 117 28;" xml:space="preserve">
<style type="text/css">
	.st0{enable-background:new    ;}
	.st1{fill:#3A2B2E;}
	.st2{fill:#AD9999;}
	.st3{fill:#E83636;}
</style>
<g class="st0">
	<path class="st1" d="M41.4,17l-1.7-3.4L37.9,17h-1.4l2.4-4.7h-2.1v-1.1h5.5v1.1h-2.1l2.4,4.8H41.4z M37.7,21.8v-4H39v2.9H45v1.1
		H37.7z M43.4,19.4v-4.9h-1.6v-1.1h1.6v-2.2h1.3v8.2H43.4z"/>
	<path class="st1" d="M51.6,17.6v4.2h-1.3v-4.2h-3.6v-1.1h8.4v1.1H51.6z M53.2,15.8l-2.3-2.4l-2.3,2.4H47l3.2-3.5h-2.9v-1.1h7.3v1.1
		h-2.9l3.2,3.5H53.2z"/>
	<path class="st1" d="M56.5,12.8v-1.1h2.3V11h1.3v0.7h2.3v1.1H60c0.6,0.1,1.1,0.4,1.5,0.8s0.6,0.9,0.6,1.5c0,0.7-0.3,1.2-0.8,1.7
		c-0.5,0.5-1.2,0.7-1.9,0.7s-1.4-0.2-1.9-0.7c-0.5-0.5-0.8-1-0.8-1.7c0-0.6,0.2-1.1,0.6-1.5c0.4-0.4,0.9-0.7,1.5-0.8H56.5z
		 M57.3,21.8V18h1.3v2.7h5.8v1.1H57.3z M60.4,14.2c-0.3-0.3-0.6-0.4-1-0.4s-0.7,0.1-1,0.4s-0.4,0.6-0.4,1s0.1,0.7,0.4,1
		s0.6,0.4,1,0.4s0.7-0.1,1-0.4s0.4-0.6,0.4-1S60.6,14.5,60.4,14.2z M64.2,15.2v4.3h-1.3v-8.2h1.3v2.9h1.1v1.1H64.2z"/>
	<path class="st1" d="M70.9,17.8l-1.7-3.9l-1.8,3.9H66l2.5-5.5h-2.1v-1.1h5.5v1.1h-2.1l2.5,5.5H70.9z M73,21.8V11.2h1.3v10.6H73z"/>
	<path class="st1" d="M81.3,17.6v1.9H80v-1.9h-3.7v-1.1h8.4v1.1H81.3z M77,15.5v-4.3h6.8v4.3H77z M77,21.8v-3.1h1.3v2h5.8v1.1H77z
		 M82.6,12.3h-4.2v2.2h4.2V12.3z"/>
	<path class="st1" d="M89.6,18.1H92v1.1h-6.2v-1.1h2.5v-0.6c-0.5-0.1-1-0.4-1.3-0.8s-0.5-0.9-0.5-1.4c0-0.6,0.2-1.2,0.7-1.6
		c0.5-0.5,1.1-0.7,1.8-0.7c0.7,0,1.3,0.2,1.8,0.7s0.7,1,0.7,1.6c0,0.5-0.2,1-0.5,1.4s-0.8,0.7-1.4,0.8V18.1z M86,12.8v-1.1h2.3V11
		h1.3v0.8h2.3v1.1H86z M89.9,14.3c-0.2-0.2-0.5-0.4-0.9-0.4c-0.3,0-0.6,0.1-0.9,0.4s-0.4,0.5-0.4,0.9s0.1,0.6,0.4,0.9
		s0.5,0.4,0.9,0.4c0.3,0,0.6-0.1,0.9-0.4s0.4-0.5,0.4-0.9S90.1,14.6,89.9,14.3z M93.7,16v5.8h-1.3V11.2h1.3v3.7h1.1V16H93.7z"/>
	<path class="st1" d="M100.8,17v1h2.8v3.8h-1.3v-2.7h-5.8V18h3v-1h-3.6V16h8.4V17H100.8z M102.4,15.3l-2.3-1.9l-2.3,1.9h-1.7
		l3.2-2.7h-2.9v-1.1h3V11h1.3v0.6h3.1v1.1h-2.9l3.2,2.7H102.4z"/>
	<path class="st1" d="M109.2,17.8l-1.3-3.8l-1.3,3.8h-1.3l1.9-5.5h-1.5v-1.1h4.5v1.1h-1.5l1.9,5.5H109.2z M110.8,21.8v-6.9h-1.3
		v-1.1h1.3v-2.6h1.3v10.6H110.8z M112.7,21.8V11.2h1.3v10.6H112.7z"/>
</g>
<g class="st0">
	<path class="st2" d="M37.2,5.1V4.7H38V4.5h0.4v0.2h0.8v0.4h-0.8c0.2,0,0.4,0.1,0.5,0.3c0.1,0.1,0.2,0.3,0.2,0.5
		c0,0.2-0.1,0.4-0.3,0.6c-0.2,0.2-0.4,0.2-0.6,0.2c-0.2,0-0.5-0.1-0.6-0.2c-0.2-0.2-0.3-0.3-0.3-0.6c0-0.2,0.1-0.4,0.2-0.5
		c0.1-0.1,0.3-0.2,0.5-0.3H37.2z M37.5,8.1V6.8H38v0.9h1.9v0.4H37.5z M38.5,5.6c-0.1-0.1-0.2-0.1-0.3-0.1s-0.2,0-0.3,0.1
		c-0.1,0.1-0.1,0.2-0.1,0.3s0,0.2,0.1,0.3c0.1,0.1,0.2,0.1,0.3,0.1s0.2,0,0.3-0.1c0.1-0.1,0.1-0.2,0.1-0.3S38.6,5.6,38.5,5.6z
		 M39.8,5.9v1.4h-0.4V4.6h0.4v1h0.4v0.4H39.8z"/>
	<path class="st2" d="M42,6.8l-0.6-1.3l-0.6,1.3h-0.5l0.8-1.8h-0.7V4.6h1.8v0.4h-0.7l0.8,1.8H42z M42.7,8.1V4.6h0.4v3.5H42.7z"/>
	<path class="st2" d="M43.8,7.6V7.3H45V6.7h-0.9V5.4h1.8V4.9h-1.8V4.6h2.3v1.2h-1.8v0.5h1.9v0.4h-1v0.6h1.2v0.4H43.8z"/>
	<path class="st2" d="M49.3,6.4V6h1.4V5.3h0.4V6h1v0.4H49.3z M49.8,5.7V4.9h-0.4V4.6h0.9v1.1H49.8z M51.4,8.1l-0.7-0.6l-0.7,0.6
		h-0.6l1-1h-1V6.7h1V6.5H51v0.3h1v0.4h-1l1,1H51.4z M51.5,5.7V4.9h-0.9V4.6H52v1.1H51.5z"/>
	<path class="st2" d="M52.6,6.8V6.4h0.3V4.9h-0.3V4.6h1.9v0.4h-0.3v1.5h0.3v0.4H52.6z M53.8,4.9h-0.5v1.5h0.5V4.9z M54.8,8.1V4.6
		h0.4v3.5H54.8z"/>
	<path class="st2" d="M55.9,6.7V6.3h2.8v0.4H55.9z M56.1,5.9V4.6h0.4v1h2v0.4H56.1z M56.1,8.1V6.8h0.4v0.9h1.9v0.4H56.1z"/>
	<path class="st2" d="M62.9,6.5l-0.6-1.1l-0.6,1.1h-0.5l0.8-1.6h-0.7V4.6h1.8v0.4h-0.7l0.8,1.6H62.9z M61.6,8.1V6.8h0.4v1h2v0.4
		H61.6z M63.6,7.3V5.6H63V5.3h0.5V4.6H64v2.7H63.6z"/>
	<path class="st2" d="M66.3,6.7v1.4h-0.4V6.7h-1.2V6.3h2.8v0.4H66.3z M66.8,6.1L66,5.3l-0.8,0.8h-0.5l1.1-1.2h-1V4.6h2.4v0.4h-1
		l1.1,1.2H66.8z"/>
</g>
<path class="st3" d="M31.5,14c0-1.3-0.2-2.7-0.7-3.9l0,0l-0.2-0.5l-0.1-0.3l0,0c-1.3-3.1-3.7-5.6-6.9-6.8l0,0l-0.3-0.1l0,0l-0.5-0.2
	l0,0c-1.1-0.4-2.3-0.6-3.5-0.6l0,0h-0.8l0,0c-1.2,0-2.4,0.3-3.5,0.7l0,0l-0.5,0.2l-0.3,0.1l0,0c-3,1.3-5.4,3.7-6.7,6.7l0,0L7.4,9.5
	L7.2,10l0,0c-0.3,1-0.5,2-0.5,3h0.4H6.7c0,0.3,0,0.7,0,1s0,0.7,0,1h0.4H6.7c0.1,1,0.3,2,0.6,2.9l0,0l0.2,0.5l0.1,0.3l0,0
	c1.3,3,3.7,5.5,6.7,6.7l0,0l0.3,0.1l0.5,0.2l0,0c1.3,0.4,2.6,0.7,3.9,0.7v-0.2v0.2l0,0c1.3,0,2.7-0.2,3.9-0.6l0,0l0.5-0.2l0.3-0.1
	l0,0c3.1-1.3,5.6-3.7,6.9-6.8l0,0l0.1-0.3l0,0l0.2-0.5l0,0C31.3,16.7,31.5,15.3,31.5,14z M23.7,3.3c2.7,1.2,4.8,3.3,6,6h-1.3
	c-0.1-0.1-0.1-0.2-0.2-0.3S28.1,8.8,28,8.7s-0.2-0.3-0.3-0.4c-0.1-0.1-0.1-0.2-0.2-0.3c-0.1-0.2-0.2-0.3-0.3-0.4
	c-0.1-0.1-0.1-0.2-0.2-0.2c-0.2-0.2-0.4-0.4-0.6-0.6c0,0,0,0-0.1-0.1C26.2,6.4,26,6.2,25.8,6c-0.1-0.1-0.2-0.1-0.2-0.2
	c-0.1-0.1-0.3-0.2-0.4-0.3c-0.1-0.1-0.2-0.1-0.3-0.2c-0.1-0.1-0.3-0.2-0.4-0.3c-0.1-0.1-0.2-0.1-0.3-0.2c-0.1-0.1-0.2-0.1-0.3-0.2
	V3.3H23.7z M20.4,2.4C21.3,2.5,22.2,2.7,23,3v1.3c-0.1,0-0.2-0.1-0.2-0.1c-0.1,0-0.2-0.1-0.4-0.1c-0.2,0-0.4-0.1-0.6-0.2
	c-0.1,0-0.2-0.1-0.4-0.1c-0.2,0-0.4-0.1-0.7-0.1c-0.1,0-0.2,0-0.3-0.1l0,0V2.4z M20.4,4.5c1,0.1,1.9,0.4,2.8,0.8
	c2,0.9,3.7,2.5,4.6,4.5c0.2,0.3,0.3,0.7,0.4,1h-2.1h-0.4h-0.4h-3.7V9.6h0.6V8.8h-1.4v2.9h4.5v1h-6v-5h3.9V6.8h-3V4.5H20.4z
	 M25.4,13.4v1.1h-6v-1.1H25.4z M18.4,2.4c0.2,0,0.4,0,0.6,0l0,0c0.2,0,0.4,0,0.6,0v1.2h-0.1l0,0h-0.8l0,0c-0.1,0-0.1,0-0.2,0V2.4
	H18.4z M18.4,4.4c0.1,0,0.3,0,0.4,0s0.1,0,0.2,0s0.3,0,0.4,0h0.1v2.4h-0.2H19h-0.4h-0.2V4.4z M15.1,3c0.8-0.3,1.7-0.5,2.6-0.6v1.3
	c-0.3,0-0.6,0.1-0.9,0.2c-0.1,0-0.1,0-0.2,0.1c-0.4,0-0.6,0.1-0.9,0.2c-0.1,0-0.2,0.1-0.3,0.1s-0.2,0.1-0.3,0.1
	C15.1,4.4,15.1,3,15.1,3z M14.8,5.4c0.9-0.4,1.8-0.7,2.8-0.9v2.3h-3v0.8h3.9v5h-6v-1h4.7V8.8h-1.4v0.8h0.6v1.3h-3.9h-0.4h-0.4H9.9
	c0.1-0.3,0.3-0.7,0.4-1C11.3,7.9,12.9,6.3,14.8,5.4z M18.6,13.4v1.1h-6v-1.1H18.6z M14.3,3.4v1.4c0,0-0.1,0-0.1,0.1
	c-0.4,0.2-0.8,0.5-1.2,0.8l-0.1,0.1c-0.4,0.3-0.8,0.6-1.2,1l0,0c-0.4,0.4-0.7,0.7-1,1.1L10.6,8C10.3,8.3,10,8.7,9.8,9.1
	c0,0,0,0.1-0.1,0.1H8.4C9.6,6.7,11.7,4.6,14.3,3.4z M7.5,13.1c0.1-1,0.3-2,0.6-3h1.3v0.1c-0.1,0.3-0.2,0.6-0.3,1l-0.2,0.5h3v1V13
	v0.4v0.2H7.4C7.4,13.4,7.4,13.2,7.5,13.1z M7.5,14.9c0-0.2,0-0.4,0-0.5h4.4v0.2V15v0.4v1.3h-3L9,17.1c0.1,0.2,0.2,0.5,0.3,0.8
	c0,0,0,0,0,0.1H8.1C7.8,17,7.5,16,7.5,14.9z M14.3,24.6c-2.6-1.2-4.7-3.3-5.8-5.9h1.2c0.1,0.1,0.1,0.2,0.2,0.3
	c0.1,0.1,0.1,0.2,0.2,0.3c0.1,0.2,0.2,0.3,0.3,0.5c0.1,0.1,0.1,0.2,0.2,0.3c0.1,0.2,0.2,0.3,0.3,0.5c0.1,0.1,0.1,0.2,0.2,0.2
	c0.2,0.2,0.3,0.4,0.5,0.6l0.1,0.1c0.2,0.2,0.4,0.4,0.6,0.6c0.1,0.1,0.2,0.1,0.2,0.2c0.1,0.1,0.3,0.2,0.4,0.4
	c0.1,0.1,0.2,0.1,0.3,0.2s0.3,0.2,0.4,0.3c0.1,0.1,0.2,0.1,0.3,0.2s0.2,0.1,0.3,0.2v1H14.3z M17.6,25.6c-0.9-0.1-1.7-0.3-2.6-0.6
	v-1.1c0.1,0,0.2,0.1,0.3,0.1c0.1,0.1,0.3,0.1,0.4,0.1c0.2,0.1,0.4,0.1,0.7,0.2c0.1,0,0.3,0.1,0.4,0.1c0.2,0.1,0.5,0.1,0.7,0.1h0.1
	V25.6z M17.6,23.7c-1-0.1-1.9-0.4-2.8-0.9c-2-1-3.7-2.7-4.6-4.7c-0.1-0.3-0.2-0.5-0.3-0.8h1.9h0.4h0.4h3.9v1h-0.6v0.8h1.4v-2.6h-4.7
	v-1.3h6v5h-3.9V21h3L17.6,23.7L17.6,23.7z M19.6,25.6c-0.2,0-0.4,0-0.6,0s-0.4,0-0.6,0v-1c0.2,0,0.4,0,0.6,0l0,0l0,0l0,0l0,0l0,0
	l0,0c0.2,0,0.4,0,0.6,0V25.6z M19.6,23.8c-0.2,0-0.4,0-0.6,0s-0.4,0-0.6,0v-2.7h0.2H19h0.4h0.2V23.8z M22.9,25
	c-0.8,0.3-1.7,0.5-2.6,0.6v-1h0.1c0.2,0,0.5-0.1,0.7-0.1c0.1,0,0.3-0.1,0.4-0.1c0.2-0.1,0.4-0.1,0.7-0.2c0.1,0,0.3-0.1,0.4-0.1
	s0.2-0.1,0.3-0.1V25z M23.2,23c-0.9,0.4-1.8,0.7-2.8,0.8v-2.6h3v-0.8h-3.9v-5h6v1.3H21v2.6h1.4v-0.8h-0.6v-1h3.7h0.4h0.4h2.1
	c-0.1,0.2-0.2,0.5-0.3,0.8C27,20.3,25.3,22,23.2,23z M23.7,24.7v-1.1c0.1-0.1,0.2-0.1,0.4-0.2c0.1-0.1,0.2-0.1,0.3-0.2
	c0.2-0.1,0.3-0.2,0.5-0.3c0.1-0.1,0.2-0.1,0.3-0.2c0.2-0.1,0.3-0.3,0.5-0.4c0.1-0.1,0.1-0.1,0.2-0.2c0.5-0.4,0.9-0.8,1.3-1.3
	c0.1-0.1,0.1-0.2,0.2-0.2c0.1-0.2,0.3-0.3,0.4-0.5c0.1-0.1,0.1-0.2,0.2-0.3c0.1-0.2,0.2-0.3,0.3-0.5c0.1-0.1,0.1-0.2,0.2-0.3
	c0.1-0.1,0.1-0.2,0.2-0.3h1.2C28.6,21.4,26.4,23.5,23.7,24.7z M30.1,17.9h-1.2c0,0,0,0,0-0.1c0.1-0.3,0.2-0.5,0.3-0.8l0.2-0.5h-3.2
	v-1.3V15v-0.4v-0.2h4.6C30.7,15.6,30.5,16.8,30.1,17.9z M26.2,13.6v-0.2V13v-0.4v-1h3.2l-0.2-0.5c-0.1-0.3-0.2-0.6-0.3-1V10h1.3
	c0.4,1.1,0.6,2.3,0.7,3.5h-4.7V13.6z"/>
</svg>
