<?xml version="1.0" encoding="utf-8"?>
<!-- Generator: Adobe Illustrator 21.0.0, SVG Export Plug-In . SVG Version: 6.00 Build 0)  -->
<svg version="1.1" id="Layer_1" xmlns="http://www.w3.org/2000/svg" xmlns:xlink="http://www.w3.org/1999/xlink" x="0px" y="0px"
	 viewBox="0 0 113 28" style="enable-background:new 0 0 113 28;" xml:space="preserve">
<style type="text/css">
	.st0{fill:#E2E0E0;}
	.st1{fill:#D8CBCB;}
	.st2{fill:#DB2A2A;}
</style>
<g>
	<path class="st0" d="M38.4,17l-1.7-3.4L34.9,17h-1.4l2.4-4.7h-2.1v-1.1h5.5v1.1h-2.1l2.4,4.8H38.4z M34.7,21.8v-4H36v2.9H42v1.1
		H34.7z M40.4,19.4v-4.9h-1.6v-1.1h1.6v-2.2h1.3v8.2H40.4z"/>
	<path class="st0" d="M48.6,17.6v4.2h-1.3v-4.2h-3.6v-1.1h8.4v1.1H48.6z M50.2,15.8l-2.3-2.4l-2.3,2.4H44l3.2-3.5h-2.9v-1.1h7.3v1.1
		h-2.9l3.2,3.5H50.2z"/>
	<path class="st0" d="M53.5,12.8v-1.1h2.3V11h1.3v0.7h2.3v1.1H57c0.6,0.1,1.1,0.4,1.5,0.8c0.4,0.4,0.6,0.9,0.6,1.5
		c0,0.7-0.3,1.2-0.8,1.7s-1.2,0.7-1.9,0.7s-1.4-0.2-1.9-0.7s-0.8-1-0.8-1.7c0-0.6,0.2-1.1,0.6-1.5c0.4-0.4,0.9-0.7,1.5-0.8H53.5z
		 M54.3,21.8V18h1.3v2.7h5.8v1.1H54.3z M57.4,14.2c-0.3-0.3-0.6-0.4-1-0.4s-0.7,0.1-1,0.4s-0.4,0.6-0.4,1s0.1,0.7,0.4,1
		s0.6,0.4,1,0.4s0.7-0.1,1-0.4s0.4-0.6,0.4-1S57.6,14.5,57.4,14.2z M61.2,15.2v4.3h-1.3v-8.2h1.3v2.9h1.1v1.1H61.2z"/>
	<path class="st0" d="M67.9,17.8l-1.7-3.9l-1.8,3.9H63l2.5-5.5h-2.1v-1.1h5.5v1.1h-2.1l2.5,5.5H67.9z M70,21.8V11.2h1.3v10.6H70z"/>
	<path class="st0" d="M78.3,17.6v1.9H77v-1.9h-3.7v-1.1h8.4v1.1H78.3z M74,15.5v-4.3h6.8v4.3H74z M74,21.8v-3.1h1.3v2h5.8v1.1H74z
		 M79.6,12.3h-4.2v2.2h4.2V12.3z"/>
	<path class="st0" d="M86.6,18.1H89v1.1h-6.2v-1.1h2.5v-0.6c-0.5-0.1-1-0.4-1.3-0.8s-0.5-0.9-0.5-1.4c0-0.6,0.2-1.2,0.7-1.6
		c0.5-0.5,1.1-0.7,1.8-0.7c0.7,0,1.3,0.2,1.8,0.7s0.7,1,0.7,1.6c0,0.5-0.2,1-0.5,1.4s-0.8,0.7-1.4,0.8V18.1z M83,12.8v-1.1h2.3V11
		h1.3v0.8h2.3v1.1H83z M86.9,14.3c-0.2-0.2-0.5-0.4-0.9-0.4c-0.3,0-0.6,0.1-0.9,0.4s-0.4,0.5-0.4,0.9s0.1,0.6,0.4,0.9
		s0.5,0.4,0.9,0.4c0.3,0,0.6-0.1,0.9-0.4s0.4-0.5,0.4-0.9S87.1,14.6,86.9,14.3z M90.7,16v5.8h-1.3V11.2h1.3v3.7h1.1V16H90.7z"/>
	<path class="st0" d="M97.8,17v1h2.8v3.8h-1.3v-2.7h-5.8V18h3v-1h-3.6V16h8.4V17H97.8z M99.4,15.3l-2.3-1.9l-2.3,1.9h-1.7l3.2-2.7
		h-2.9v-1.1h3V11h1.3v0.6h3.1v1.1h-2.9l3.2,2.7H99.4z"/>
	<path class="st0" d="M106.2,17.8l-1.3-3.8l-1.3,3.8h-1.3l1.9-5.5h-1.5v-1.1h4.5v1.1h-1.5l1.9,5.5H106.2z M107.8,21.8v-6.9h-1.3
		v-1.1h1.3v-2.6h1.3v10.6H107.8z M109.7,21.8V11.2h1.3v10.6H109.7z"/>
</g>
<g>
	<path class="st1" d="M34.2,5.1V4.7H35V4.5h0.4v0.2h0.8v0.4h-0.8c0.2,0,0.4,0.1,0.5,0.3s0.2,0.3,0.2,0.5c0,0.2-0.1,0.4-0.3,0.6
		c-0.2,0.2-0.4,0.2-0.6,0.2c-0.2,0-0.5-0.1-0.6-0.2c-0.2-0.2-0.3-0.3-0.3-0.6c0-0.2,0.1-0.4,0.2-0.5s0.3-0.2,0.5-0.3H34.2z
		 M34.5,8.1V6.8H35v0.9h1.9v0.4H34.5z M35.5,5.6c-0.1-0.1-0.2-0.1-0.3-0.1s-0.2,0-0.3,0.1c-0.1,0.1-0.1,0.2-0.1,0.3s0,0.2,0.1,0.3
		c0.1,0.1,0.2,0.1,0.3,0.1s0.2,0,0.3-0.1c0.1-0.1,0.1-0.2,0.1-0.3S35.6,5.6,35.5,5.6z M36.8,5.9v1.4h-0.4V4.6h0.4v1h0.4v0.4H36.8z"
		/>
	<path class="st1" d="M39,6.8l-0.6-1.3l-0.6,1.3h-0.5l0.8-1.8h-0.7V4.6h1.8v0.4h-0.7l0.8,1.8H39z M39.7,8.1V4.6h0.4v3.5H39.7z"/>
	<path class="st1" d="M40.8,7.6V7.3H42V6.7h-0.9V5.4h1.8V4.9h-1.8V4.6h2.3v1.2h-1.8v0.5h1.9v0.4h-1v0.6h1.2v0.4H40.8z"/>
	<path class="st1" d="M46.3,6.4V6h1.4V5.3h0.4V6h1v0.4H46.3z M46.8,5.7V4.9h-0.4V4.6h0.9v1.1H46.8z M48.4,8.1l-0.7-0.6l-0.7,0.6
		h-0.6l1-1h-1V6.7h1V6.5H48v0.3h1v0.4h-1l1,1H48.4z M48.5,5.7V4.9h-0.9V4.6H49v1.1H48.5z"/>
	<path class="st1" d="M49.6,6.8V6.4h0.3V4.9h-0.3V4.6h1.9v0.4h-0.3v1.5h0.3v0.4H49.6z M50.8,4.9h-0.5v1.5h0.5V4.9z M51.8,8.1V4.6
		h0.4v3.5H51.8z"/>
	<path class="st1" d="M52.9,6.7V6.3h2.8v0.4H52.9z M53.1,5.9V4.6h0.4v1h2v0.4H53.1z M53.1,8.1V6.8h0.4v0.9h1.9v0.4H53.1z"/>
	<path class="st1" d="M59.9,6.5l-0.6-1.1l-0.6,1.1h-0.5l0.8-1.6h-0.7V4.6h1.8v0.4h-0.7l0.8,1.6H59.9z M58.6,8.1V6.8h0.4v1h2v0.4
		H58.6z M60.6,7.3V5.6H60V5.3h0.5V4.6H61v2.7H60.6z"/>
	<path class="st1" d="M63.3,6.7v1.4h-0.4V6.7h-1.2V6.3h2.8v0.4H63.3z M63.8,6.1L63,5.3l-0.8,0.8h-0.5l1.1-1.2h-1V4.6h2.4v0.4h-1
		l1.1,1.2H63.8z"/>
</g>
<path class="st2" d="M28.5,14c0-1.3-0.2-2.7-0.7-3.9h0l-0.2-0.5l-0.1-0.3h0c-1.3-3.1-3.7-5.6-6.9-6.8v0l-0.3-0.1c0,0,0,0,0,0
	l-0.5-0.2v0c-1.1-0.4-2.3-0.6-3.5-0.6l0,0l-0.8,0v0c-1.2,0-2.4,0.3-3.5,0.7v0l-0.5,0.2l-0.3,0.1v0c-3,1.3-5.4,3.7-6.7,6.7h0L4.4,9.5
	l-0.2,0.5h0C3.9,11,3.7,12,3.7,13l0.4,0l-0.4,0c0,0.3,0,0.7,0,1s0,0.7,0,1l0.4,0l-0.4,0c0.1,1,0.3,2,0.6,2.9h0l0.2,0.5l0.1,0.3h0
	c1.3,3,3.7,5.5,6.7,6.7v0l0.3,0.1l0.5,0.2v0c1.3,0.4,2.6,0.7,3.9,0.7l0-0.2l0,0.2c0,0,0,0,0,0c1.3,0,2.7-0.2,3.9-0.6v0l0.5-0.2
	l0.3-0.1v0c3.1-1.3,5.6-3.7,6.9-6.8h0l0.1-0.3c0,0,0,0,0,0l0.2-0.5h0C28.3,16.7,28.5,15.3,28.5,14z M20.7,3.3c2.7,1.2,4.8,3.3,6,6
	h-1.3c-0.1-0.1-0.1-0.2-0.2-0.3c-0.1-0.1-0.1-0.2-0.2-0.3c-0.1-0.1-0.2-0.3-0.3-0.4c-0.1-0.1-0.1-0.2-0.2-0.3
	c-0.1-0.2-0.2-0.3-0.3-0.4c-0.1-0.1-0.1-0.2-0.2-0.2c-0.2-0.2-0.4-0.4-0.6-0.6c0,0,0,0-0.1-0.1C23.2,6.4,23,6.2,22.8,6
	c-0.1-0.1-0.2-0.1-0.2-0.2c-0.1-0.1-0.3-0.2-0.4-0.3c-0.1-0.1-0.2-0.1-0.3-0.2c-0.1-0.1-0.3-0.2-0.4-0.3c-0.1-0.1-0.2-0.1-0.3-0.2
	c-0.1-0.1-0.2-0.1-0.3-0.2V3.3z M17.4,2.4c0.9,0.1,1.8,0.3,2.6,0.6v1.3c-0.1,0-0.2-0.1-0.2-0.1c-0.1,0-0.2-0.1-0.4-0.1
	C19.2,4.1,19,4,18.8,3.9c-0.1,0-0.2-0.1-0.4-0.1c-0.2,0-0.4-0.1-0.7-0.1c-0.1,0-0.2,0-0.3-0.1c0,0,0,0,0,0V2.4z M17.4,4.5
	c1,0.1,1.9,0.4,2.8,0.8c2,0.9,3.7,2.5,4.6,4.5c0.2,0.3,0.3,0.7,0.4,1h-2.1h-0.4h-0.4h-3.7V9.6h0.6V8.8h-1.4v2.9h4.5v1h-6v-5h3.9V6.8
	h-3V4.5z M22.4,13.4v1.1h-6v-1.1H22.4z M15.4,2.4c0.2,0,0.4,0,0.6,0h0c0.2,0,0.4,0,0.6,0v1.2c0,0-0.1,0-0.1,0l0,0l-0.8,0v0
	c-0.1,0-0.1,0-0.2,0V2.4z M15.4,4.4c0.1,0,0.3,0,0.4,0c0.1,0,0.1,0,0.2,0c0.1,0,0.3,0,0.4,0c0,0,0.1,0,0.1,0v2.4h-0.2H16h-0.4h-0.2
	V4.4z M12.1,3c0.8-0.3,1.7-0.5,2.6-0.6v1.3c-0.3,0-0.6,0.1-0.9,0.2c-0.1,0-0.1,0-0.2,0.1C13.2,4,13,4.1,12.7,4.2
	c-0.1,0-0.2,0.1-0.3,0.1c-0.1,0-0.2,0.1-0.3,0.1V3z M11.8,5.4c0.9-0.4,1.8-0.7,2.8-0.9v2.3h-3v0.8h3.9v5h-6v-1h4.7V8.8h-1.4v0.8h0.6
	v1.3H9.6H9.2H8.8H6.9c0.1-0.3,0.3-0.7,0.4-1C8.3,7.9,9.9,6.3,11.8,5.4z M15.6,13.4v1.1h-6v-1.1H15.6z M11.3,3.4v1.4
	c0,0-0.1,0-0.1,0.1c-0.4,0.2-0.8,0.5-1.2,0.8c0,0-0.1,0.1-0.1,0.1C9.4,6,9,6.3,8.7,6.7c0,0,0,0,0,0C8.3,7,8,7.4,7.7,7.8
	c0,0-0.1,0.1-0.1,0.1C7.3,8.3,7,8.7,6.8,9.1c0,0,0,0.1-0.1,0.1H5.4C6.6,6.7,8.7,4.6,11.3,3.4z M4.5,13.1c0.1-1,0.3-2,0.6-3h1.3
	c0,0,0,0.1,0,0.1c-0.1,0.3-0.2,0.6-0.3,1l-0.2,0.5h3v1V13v0.4v0.2H4.4C4.4,13.4,4.4,13.2,4.5,13.1z M4.5,14.9c0-0.2,0-0.4,0-0.5h4.4
	v0.2V15v0.4v1.3h-3L6,17.1c0.1,0.2,0.2,0.5,0.3,0.8c0,0,0,0,0,0.1H5.1C4.8,17,4.5,16,4.5,14.9z M11.3,24.6c-2.6-1.2-4.7-3.3-5.8-5.9
	h1.2c0.1,0.1,0.1,0.2,0.2,0.3c0.1,0.1,0.1,0.2,0.2,0.3c0.1,0.2,0.2,0.3,0.3,0.5c0.1,0.1,0.1,0.2,0.2,0.3c0.1,0.2,0.2,0.3,0.3,0.5
	c0.1,0.1,0.1,0.2,0.2,0.2c0.2,0.2,0.3,0.4,0.5,0.6c0,0,0.1,0.1,0.1,0.1c0.2,0.2,0.4,0.4,0.6,0.6c0.1,0.1,0.2,0.1,0.2,0.2
	c0.1,0.1,0.3,0.2,0.4,0.4c0.1,0.1,0.2,0.1,0.3,0.2c0.1,0.1,0.3,0.2,0.4,0.3c0.1,0.1,0.2,0.1,0.3,0.2c0.1,0.1,0.2,0.1,0.3,0.2V24.6z
	 M14.6,25.6c-0.9-0.1-1.7-0.3-2.6-0.6v-1.1c0.1,0,0.2,0.1,0.3,0.1c0.1,0.1,0.3,0.1,0.4,0.1c0.2,0.1,0.4,0.1,0.7,0.2
	c0.1,0,0.3,0.1,0.4,0.1c0.2,0.1,0.5,0.1,0.7,0.1c0,0,0.1,0,0.1,0V25.6z M14.6,23.7c-1-0.1-1.9-0.4-2.8-0.9c-2-1-3.7-2.7-4.6-4.7
	c-0.1-0.3-0.2-0.5-0.3-0.8h1.9h0.4h0.4h3.9v1h-0.6v0.8h1.4v-2.6H9.6v-1.3h6v5h-3.9v0.8h3V23.7z M16.6,25.6c-0.2,0-0.4,0-0.6,0
	c-0.2,0-0.4,0-0.6,0v-1c0.2,0,0.4,0,0.6,0l0,0l0,0c0,0,0,0,0,0v0l0,0v0c0.2,0,0.4,0,0.6,0V25.6z M16.6,23.8c-0.2,0-0.4,0-0.6,0
	c-0.2,0-0.4,0-0.6,0v-2.7h0.2H16h0.4h0.2V23.8z M19.9,25c-0.8,0.3-1.7,0.5-2.6,0.6v-1c0,0,0.1,0,0.1,0c0.2,0,0.5-0.1,0.7-0.1
	c0.1,0,0.3-0.1,0.4-0.1c0.2-0.1,0.4-0.1,0.7-0.2c0.1,0,0.3-0.1,0.4-0.1c0.1,0,0.2-0.1,0.3-0.1V25z M20.2,23
	c-0.9,0.4-1.8,0.7-2.8,0.8v-2.6h3v-0.8h-3.9v-5h6v1.3h-4.5v2.6h1.4v-0.8h-0.6v-1h3.7h0.4h0.4h2.1c-0.1,0.2-0.2,0.5-0.3,0.8
	C24,20.3,22.3,22,20.2,23z M20.7,24.7v-1.1c0.1-0.1,0.2-0.1,0.4-0.2c0.1-0.1,0.2-0.1,0.3-0.2c0.2-0.1,0.3-0.2,0.5-0.3
	c0.1-0.1,0.2-0.1,0.3-0.2c0.2-0.1,0.3-0.3,0.5-0.4c0.1-0.1,0.1-0.1,0.2-0.2c0.5-0.4,0.9-0.8,1.3-1.3c0.1-0.1,0.1-0.2,0.2-0.2
	c0.1-0.2,0.3-0.3,0.4-0.5c0.1-0.1,0.1-0.2,0.2-0.3c0.1-0.2,0.2-0.3,0.3-0.5c0.1-0.1,0.1-0.2,0.2-0.3c0.1-0.1,0.1-0.2,0.2-0.3h1.2
	C25.6,21.4,23.4,23.5,20.7,24.7z M27.1,17.9h-1.2c0,0,0,0,0-0.1c0.1-0.3,0.2-0.5,0.3-0.8l0.2-0.5h-3.2v-1.3V15v-0.4v-0.2h4.6
	C27.7,15.6,27.5,16.8,27.1,17.9z M23.2,13.6v-0.2V13v-0.4v-1h3.2l-0.2-0.5c-0.1-0.3-0.2-0.6-0.3-1c0,0,0-0.1,0-0.1h1.3
	c0.4,1.1,0.6,2.3,0.7,3.5H23.2z"/>
</svg>
